<svg width="614" height="610" viewBox="0 0 614 610" fill="none" xmlns="http://www.w3.org/2000/svg">
<path fill-rule="evenodd" clip-rule="evenodd" d="M508.817 317.049L316.834 434.059L316.534 539.323L508.099 420.433L508.817 317.049ZM517.606 437.915L325.902 556.891L411.522 609.316L603.227 490.34L517.606 437.915ZM612.763 472.876L527.129 420.444L527.848 316.94L613.481 369.373L612.763 472.876Z" fill="#25292F"/>
<path fill-rule="evenodd" clip-rule="evenodd" d="M325.878 179.189L517.242 297.338L603.191 244.981L410.504 128.157L325.878 179.189ZM420 110.668L612.827 227.577L612.747 122.582L419.92 5.67187L420 110.668ZM400.918 5.62929L400.998 110.642L316.274 161.732L316.194 56.7198L400.918 5.62929Z" fill="#25292F"/>
<path fill-rule="evenodd" clip-rule="evenodd" d="M104.664 292.267L296.648 175.257L296.947 69.9929L105.382 188.883L104.664 292.267ZM95.8756 171.4L287.579 52.4246L201.96 2.49056e-05L10.2547 118.976L95.8756 171.4ZM0.71889 136.439L86.3528 188.871L85.6336 292.375L1.26074e-05 239.943L0.71889 136.439Z" fill="#25292F"/>
<path fill-rule="evenodd" clip-rule="evenodd" d="M287.604 430.127L96.2392 311.978L10.2905 364.335L202.978 481.158L287.604 430.127ZM193.482 498.647L0.654946 381.739L0.734294 486.734L193.562 603.644L193.482 498.647ZM212.564 603.686L212.483 498.674L297.207 447.584L297.288 552.596L212.564 603.686Z" fill="#25292F"/>
</svg>
